<svg width="217" height="100" viewBox="0 0 217 100" fill="none" xmlns="http://www.w3.org/2000/svg">
<path d="M24.75 23.8889L15.375 76.1111M76.5 86.5555L24 86.5556M21.9 23.8889H26.1C29.0403 23.8889 30.5104 23.8889 31.6334 23.3197C32.6213 22.819 33.4244 22.0201 33.9278 21.0375C34.5 19.9204 34.5 18.4581 34.5 15.5333V11.3556C34.5 8.43084 34.5 6.96848 33.9278 5.85138C33.4244 4.86876 32.6213 4.06986 31.6334 3.56919C30.5104 3 29.0403 3 26.1 3H21.9C18.9597 3 17.4896 3 16.3666 3.56919C15.3787 4.06986 14.5756 4.86876 14.0722 5.85138C13.5 6.96848 13.5 8.43084 13.5 11.3556V15.5333C13.5 18.4581 13.5 19.9204 14.0722 21.0375C14.5756 22.0201 15.3787 22.819 16.3666 23.3197C17.4896 23.8889 18.9597 23.8889 21.9 23.8889ZM11.4 97H15.6C18.5403 97 20.0104 97 21.1334 96.4308C22.1213 95.9301 22.9244 95.1312 23.4278 94.1486C24 93.0315 24 91.5692 24 88.6444V84.4667C24 81.5419 24 80.0796 23.4278 78.9625C22.9244 77.9799 22.1213 77.181 21.1334 76.6803C20.0104 76.1111 18.5403 76.1111 15.6 76.1111H11.4C8.45972 76.1111 6.98959 76.1111 5.86655 76.6803C4.8787 77.181 4.07555 77.9799 3.57222 78.9625C3 80.0796 3 81.5419 3 84.4667V88.6444C3 91.5692 3 93.0315 3.57222 94.1486C4.07555 95.1312 4.8787 95.9301 5.86655 96.4308C6.98959 97 8.45972 97 11.4 97ZM84.9 97H89.1C92.0403 97 93.5104 97 94.6335 96.4308C95.6213 95.9301 96.4244 95.1312 96.9278 94.1486C97.5 93.0315 97.5 91.5692 97.5 88.6444V84.4667C97.5 81.5419 97.5 80.0796 96.9278 78.9625C96.4244 77.9799 95.6213 77.181 94.6335 76.6803C93.5104 76.1111 92.0403 76.1111 89.1 76.1111H84.9C81.9597 76.1111 80.4896 76.1111 79.3665 76.6803C78.3787 77.181 77.5756 77.9799 77.0722 78.9625C76.5 80.0796 76.5 81.5419 76.5 84.4667V88.6444C76.5 91.5692 76.5 93.0315 77.0722 94.1486C77.5756 95.1312 78.3787 95.9301 79.3665 96.4308C80.4896 97 81.9597 97 84.9 97Z" stroke="black" stroke-width="6" stroke-linecap="round" stroke-linejoin="round"/>
<path d="M39.5 69.6V65.15H35V37.35H40.5V64H53V59.5H58.55V65.15H54V69.6H39.5ZM64.5898 69.6V46.2H70.0898V69.6H64.5898ZM64.5898 43V37.35H70.0898V43H64.5898ZM75.1855 69.6V46.2H94.1855V50.7H98.7355V69.6H93.1855V51.8H80.6855V69.6H75.1855ZM103.799 69.6V37.35H109.299V55.05H112.799V50.7H121.799V46.2H127.349V51.8H122.799V56.25H113.749V59.5H122.799V64H127.349V69.6H121.799V65.15H112.799V60.7H109.299V69.6H103.799ZM135.027 33.0137H140.984V69H135.027V33.0137ZM156.023 52.7891H142.986V48.7852H156.023V52.7891ZM157.537 33.0137V37.457H142.986V33.0137H157.537ZM162.246 69.6V50.7H166.746V46.2H181.246V50.7H185.796V56.25H180.246V51.8H167.746V69.6H162.246ZM194.822 69.6V65.15H190.322V50.7H194.822V46.2H209.322V50.7H213.872V65.15H209.322V69.6H194.822ZM195.822 64H208.322V51.8H195.822V64Z" fill="black"/>
</svg>
